<mxfile host="app.diagrams.net" modified="2022-01-17T13:43:40.130Z" agent="5.0 (Windows NT 10.0; Win64; x64) AppleWebKit/537.36 (KHTML, like Gecko) Chrome/97.0.4692.71 Safari/537.36" etag="janUCC2Ej3i5hHw70JO2" version="16.2.7" type="github">
  <diagram id="ly7LOqy5U7Yrtg82am8c" name="Accueil">
    <mxGraphModel dx="3200" dy="1823" grid="1" gridSize="10" guides="1" tooltips="1" connect="1" arrows="1" fold="1" page="1" pageScale="1" pageWidth="1169" pageHeight="827" math="0" shadow="0">
      <root>
        <mxCell id="0" />
        <mxCell id="1" parent="0" />
        <mxCell id="OH9PSzJY4gGJ-cJ-iGZD-1" value="" style="strokeWidth=1;shadow=0;dashed=0;align=center;html=1;shape=mxgraph.mockup.containers.browserWindow;rSize=0;strokeColor=#666666;strokeColor2=#008cff;strokeColor3=#c4c4c4;mainText=,;recursiveResize=0;" parent="1" vertex="1">
          <mxGeometry x="-90" y="-160" width="1200" height="1800" as="geometry" />
        </mxCell>
        <mxCell id="OH9PSzJY4gGJ-cJ-iGZD-2" value="Accueil" style="strokeWidth=1;shadow=0;dashed=0;align=center;html=1;shape=mxgraph.mockup.containers.anchor;fontSize=17;fontColor=#666666;align=left;" parent="OH9PSzJY4gGJ-cJ-iGZD-1" vertex="1">
          <mxGeometry x="60" y="12" width="110" height="26" as="geometry" />
        </mxCell>
        <mxCell id="OH9PSzJY4gGJ-cJ-iGZD-3" value="https://villagegreen.com" style="strokeWidth=1;shadow=0;dashed=0;align=center;html=1;shape=mxgraph.mockup.containers.anchor;rSize=0;fontSize=17;fontColor=#666666;align=left;" parent="OH9PSzJY4gGJ-cJ-iGZD-1" vertex="1">
          <mxGeometry x="130" y="60" width="250" height="26" as="geometry" />
        </mxCell>
        <mxCell id="OH9PSzJY4gGJ-cJ-iGZD-4" value="" style="html=1;shadow=0;dashed=0;fillColor=#C1CFD6;strokeColor=none;fontSize=16;fontColor=#161819;align=left;spacing=15;" parent="OH9PSzJY4gGJ-cJ-iGZD-1" vertex="1">
          <mxGeometry y="110" width="1169" height="60" as="geometry" />
        </mxCell>
        <mxCell id="OH9PSzJY4gGJ-cJ-iGZD-7" value="Infos" style="fillColor=none;strokeColor=none;fontSize=14;fontColor=#011D7A;align=center;spacingRight=0;fontStyle=1" parent="OH9PSzJY4gGJ-cJ-iGZD-4" vertex="1">
          <mxGeometry width="80" height="40" relative="1" as="geometry">
            <mxPoint x="830" y="16" as="offset" />
          </mxGeometry>
        </mxCell>
        <mxCell id="OH9PSzJY4gGJ-cJ-iGZD-8" value="Espace client" style="fillColor=none;strokeColor=none;fontSize=14;fontColor=#011D7A;align=center;fontStyle=1" parent="OH9PSzJY4gGJ-cJ-iGZD-4" vertex="1">
          <mxGeometry width="80" height="40" relative="1" as="geometry">
            <mxPoint x="920" y="16" as="offset" />
          </mxGeometry>
        </mxCell>
        <mxCell id="OH9PSzJY4gGJ-cJ-iGZD-12" value="" style="verticalLabelPosition=bottom;shadow=0;dashed=0;align=center;html=1;verticalAlign=top;strokeWidth=1;shape=mxgraph.mockup.misc.shoppingCart;strokeColor=#011D7A;" parent="OH9PSzJY4gGJ-cJ-iGZD-4" vertex="1">
          <mxGeometry x="1030" y="16.25" width="43.837500000000006" height="27.5" as="geometry" />
        </mxCell>
        <mxCell id="OH9PSzJY4gGJ-cJ-iGZD-13" value="" style="shape=image;html=1;verticalAlign=top;verticalLabelPosition=bottom;labelBackgroundColor=#ffffff;imageAspect=0;aspect=fixed;image=https://cdn1.iconfinder.com/data/icons/famfamfam_flag_icons/fr.png" parent="OH9PSzJY4gGJ-cJ-iGZD-4" vertex="1">
          <mxGeometry x="1100.0012500000003" y="15.5" width="29" height="29" as="geometry" />
        </mxCell>
        <mxCell id="OH9PSzJY4gGJ-cJ-iGZD-16" value="" style="html=1;shadow=0;dashed=0;fillColor=#535C66;strokeColor=none;fontSize=16;fontColor=#ffffff;align=left;spacing=15;" parent="OH9PSzJY4gGJ-cJ-iGZD-1" vertex="1">
          <mxGeometry x="140" y="170" width="1030" height="60" as="geometry" />
        </mxCell>
        <mxCell id="OH9PSzJY4gGJ-cJ-iGZD-19" value="Aide" style="fillColor=none;strokeColor=none;fontSize=24;fontColor=#FFFFFF;align=center;spacingRight=0;fontStyle=1" parent="OH9PSzJY4gGJ-cJ-iGZD-16" vertex="1">
          <mxGeometry width="80" height="40" relative="1" as="geometry">
            <mxPoint x="580" y="10" as="offset" />
          </mxGeometry>
        </mxCell>
        <mxCell id="OH9PSzJY4gGJ-cJ-iGZD-20" value="A propos" style="fillColor=none;strokeColor=none;fontSize=24;fontColor=#FFFFFF;align=center;fontStyle=1" parent="OH9PSzJY4gGJ-cJ-iGZD-16" vertex="1">
          <mxGeometry width="80" height="40" relative="1" as="geometry">
            <mxPoint x="780" y="10" as="offset" />
          </mxGeometry>
        </mxCell>
        <mxCell id="OH9PSzJY4gGJ-cJ-iGZD-25" value="" style="html=1;shadow=0;dashed=0;fillColor=#343A40;strokeColor=none;fontSize=16;fontColor=#ffffff;align=left;spacing=15;" parent="OH9PSzJY4gGJ-cJ-iGZD-1" vertex="1">
          <mxGeometry x="110" y="230" width="1060" height="60" as="geometry" />
        </mxCell>
        <mxCell id="OH9PSzJY4gGJ-cJ-iGZD-29" value="Guit/bass" style="fillColor=none;strokeColor=none;fontSize=17;fontColor=#FFFFFF;align=center;shadow=0;fontStyle=1" parent="OH9PSzJY4gGJ-cJ-iGZD-25" vertex="1">
          <mxGeometry width="80" height="40" relative="1" as="geometry">
            <mxPoint x="160" y="10" as="offset" />
          </mxGeometry>
        </mxCell>
        <mxCell id="OH9PSzJY4gGJ-cJ-iGZD-14" value="LOGO" style="ellipse;whiteSpace=wrap;html=1;fontColor=#011D7A;strokeColor=#011D7A;fillColor=#C1CFD6;shadow=0;" parent="OH9PSzJY4gGJ-cJ-iGZD-1" vertex="1">
          <mxGeometry y="110" width="210" height="190" as="geometry" />
        </mxCell>
        <mxCell id="OH9PSzJY4gGJ-cJ-iGZD-42" value="" style="rounded=1;whiteSpace=wrap;html=1;strokeWidth=2;fillWeight=4;hachureGap=8;hachureAngle=45;fillColor=#1ba1e2;sketch=1;shadow=0;fontSize=17;fontColor=#FFFFFF;" parent="OH9PSzJY4gGJ-cJ-iGZD-1" vertex="1">
          <mxGeometry x="40" y="330" width="850" height="400" as="geometry" />
        </mxCell>
        <mxCell id="OH9PSzJY4gGJ-cJ-iGZD-58" value="" style="rounded=1;whiteSpace=wrap;html=1;strokeWidth=2;fillWeight=4;hachureGap=8;hachureAngle=45;fillColor=#1ba1e2;sketch=1;shadow=0;fontSize=17;fontColor=#FFFFFF;direction=south;" parent="OH9PSzJY4gGJ-cJ-iGZD-1" vertex="1">
          <mxGeometry x="909" y="320" width="260" height="420" as="geometry" />
        </mxCell>
        <mxCell id="OH9PSzJY4gGJ-cJ-iGZD-59" value="" style="rounded=1;whiteSpace=wrap;html=1;strokeWidth=2;fillWeight=4;hachureGap=8;hachureAngle=45;fillColor=#1ba1e2;sketch=1;shadow=0;fontSize=17;fontColor=#FFFFFF;" parent="OH9PSzJY4gGJ-cJ-iGZD-1" vertex="1">
          <mxGeometry x="40" y="770" width="1130" height="140" as="geometry" />
        </mxCell>
        <mxCell id="OH9PSzJY4gGJ-cJ-iGZD-60" value="Catégorie" style="rounded=0;whiteSpace=wrap;html=1;shadow=0;fontSize=17;fontColor=#FFFFFF;strokeColor=#011D7A;fillColor=#535C66;" parent="OH9PSzJY4gGJ-cJ-iGZD-1" vertex="1">
          <mxGeometry x="70" y="927" width="255" height="133" as="geometry" />
        </mxCell>
        <mxCell id="OH9PSzJY4gGJ-cJ-iGZD-61" value="Catégorie" style="rounded=0;whiteSpace=wrap;html=1;shadow=0;fontSize=17;fontColor=#FFFFFF;strokeColor=#011D7A;fillColor=#535C66;" parent="OH9PSzJY4gGJ-cJ-iGZD-1" vertex="1">
          <mxGeometry x="335" y="927" width="255" height="133" as="geometry" />
        </mxCell>
        <mxCell id="OH9PSzJY4gGJ-cJ-iGZD-63" value="Catégorie" style="rounded=0;whiteSpace=wrap;html=1;shadow=0;fontSize=17;fontColor=#FFFFFF;strokeColor=#011D7A;fillColor=#535C66;" parent="OH9PSzJY4gGJ-cJ-iGZD-1" vertex="1">
          <mxGeometry x="865" y="927" width="255" height="133" as="geometry" />
        </mxCell>
        <mxCell id="OH9PSzJY4gGJ-cJ-iGZD-68" value="" style="rounded=0;whiteSpace=wrap;html=1;shadow=0;fontSize=17;fontColor=#FFFFFF;strokeColor=#011D7A;fillColor=#535C66;direction=south;" parent="OH9PSzJY4gGJ-cJ-iGZD-1" vertex="1">
          <mxGeometry x="70" y="1290" width="140" height="250" as="geometry" />
        </mxCell>
        <mxCell id="OH9PSzJY4gGJ-cJ-iGZD-70" value="" style="rounded=0;whiteSpace=wrap;html=1;shadow=0;fontSize=17;fontColor=#FFFFFF;strokeColor=#011D7A;fillColor=#535C66;direction=south;" parent="OH9PSzJY4gGJ-cJ-iGZD-1" vertex="1">
          <mxGeometry x="420" y="1290" width="160" height="250" as="geometry" />
        </mxCell>
        <mxCell id="OH9PSzJY4gGJ-cJ-iGZD-69" value="" style="rounded=0;whiteSpace=wrap;html=1;shadow=0;fontSize=17;fontColor=#FFFFFF;strokeColor=#011D7A;fillColor=#535C66;direction=south;" parent="OH9PSzJY4gGJ-cJ-iGZD-1" vertex="1">
          <mxGeometry x="230" y="1290" width="150" height="250" as="geometry" />
        </mxCell>
        <mxCell id="OH9PSzJY4gGJ-cJ-iGZD-72" value="" style="rounded=0;whiteSpace=wrap;html=1;shadow=0;fontSize=17;fontColor=#FFFFFF;strokeColor=#011D7A;fillColor=#535C66;direction=west;" parent="OH9PSzJY4gGJ-cJ-iGZD-1" vertex="1">
          <mxGeometry x="645" y="1300" width="220" height="120" as="geometry" />
        </mxCell>
        <mxCell id="OH9PSzJY4gGJ-cJ-iGZD-73" value="" style="rounded=0;whiteSpace=wrap;html=1;shadow=0;fontSize=17;fontColor=#FFFFFF;strokeColor=#011D7A;fillColor=#535C66;direction=west;" parent="OH9PSzJY4gGJ-cJ-iGZD-1" vertex="1">
          <mxGeometry x="880" y="1300" width="220" height="120" as="geometry" />
        </mxCell>
        <mxCell id="OH9PSzJY4gGJ-cJ-iGZD-74" value="" style="rounded=0;whiteSpace=wrap;html=1;shadow=0;fontSize=17;fontColor=#FFFFFF;strokeColor=#011D7A;fillColor=#535C66;direction=west;" parent="OH9PSzJY4gGJ-cJ-iGZD-1" vertex="1">
          <mxGeometry x="882.5" y="1430" width="220" height="120" as="geometry" />
        </mxCell>
        <mxCell id="OH9PSzJY4gGJ-cJ-iGZD-75" value="" style="rounded=0;whiteSpace=wrap;html=1;shadow=0;fontSize=17;fontColor=#FFFFFF;strokeColor=#011D7A;fillColor=#535C66;direction=west;" parent="OH9PSzJY4gGJ-cJ-iGZD-1" vertex="1">
          <mxGeometry x="645" y="1430" width="220" height="120" as="geometry" />
        </mxCell>
        <mxCell id="OH9PSzJY4gGJ-cJ-iGZD-76" value="" style="rounded=1;whiteSpace=wrap;html=1;strokeWidth=2;fillWeight=4;hachureGap=8;hachureAngle=45;fillColor=#1ba1e2;sketch=1;shadow=0;fontSize=17;fontColor=#FFFFFF;" parent="OH9PSzJY4gGJ-cJ-iGZD-1" vertex="1">
          <mxGeometry y="1630" width="1200" height="170" as="geometry" />
        </mxCell>
        <mxCell id="OH9PSzJY4gGJ-cJ-iGZD-77" value="&lt;font color=&quot;#1a1a1a&quot;&gt;FOOTER&lt;/font&gt;" style="text;html=1;strokeColor=none;fillColor=none;align=center;verticalAlign=middle;whiteSpace=wrap;rounded=0;shadow=0;fontSize=17;fontColor=#FFFFFF;" parent="OH9PSzJY4gGJ-cJ-iGZD-1" vertex="1">
          <mxGeometry x="540" y="1600" width="60" height="30" as="geometry" />
        </mxCell>
        <mxCell id="OH9PSzJY4gGJ-cJ-iGZD-78" value="&lt;b&gt;&lt;font style=&quot;font-size: 18px&quot;&gt;Nos meilleurs ventes&lt;/font&gt;&lt;/b&gt;" style="text;html=1;strokeColor=none;fillColor=none;align=center;verticalAlign=middle;whiteSpace=wrap;rounded=0;shadow=0;fontSize=17;fontColor=#1A1A1A;" parent="OH9PSzJY4gGJ-cJ-iGZD-1" vertex="1">
          <mxGeometry x="30" y="1250" width="260" height="30" as="geometry" />
        </mxCell>
        <mxCell id="OH9PSzJY4gGJ-cJ-iGZD-79" value="&lt;b&gt;&lt;font style=&quot;font-size: 18px&quot;&gt;Nos partenaires&lt;/font&gt;&lt;/b&gt;" style="text;html=1;strokeColor=none;fillColor=none;align=center;verticalAlign=middle;whiteSpace=wrap;rounded=0;shadow=0;fontSize=17;fontColor=#1A1A1A;" parent="OH9PSzJY4gGJ-cJ-iGZD-1" vertex="1">
          <mxGeometry x="605" y="1250" width="215" height="30" as="geometry" />
        </mxCell>
        <mxCell id="OH9PSzJY4gGJ-cJ-iGZD-23" value="Service" style="fillColor=none;strokeColor=none;fontSize=24;fontColor=#FFFFFF;align=center;spacingRight=0;fontStyle=1" parent="1" vertex="1">
          <mxGeometry x="460" y="20" width="80" height="40" as="geometry" />
        </mxCell>
        <mxCell id="OH9PSzJY4gGJ-cJ-iGZD-24" value="Produits" style="fillColor=none;strokeColor=none;fontSize=24;fontColor=#FFFFFF;align=center;spacingRight=0;fontStyle=1" parent="1" vertex="1">
          <mxGeometry x="266" y="20" width="80" height="40" as="geometry" />
        </mxCell>
        <mxCell id="OH9PSzJY4gGJ-cJ-iGZD-34" value="Batteries" style="fillColor=none;strokeColor=none;fontSize=17;fontColor=#FFFFFF;align=center;shadow=0;fontStyle=1" parent="1" vertex="1">
          <mxGeometry x="276" y="82" width="80" height="40" as="geometry" />
        </mxCell>
        <mxCell id="OH9PSzJY4gGJ-cJ-iGZD-35" value="Clavier" style="fillColor=none;strokeColor=none;fontSize=17;fontColor=#FFFFFF;align=center;shadow=0;fontStyle=1" parent="1" vertex="1">
          <mxGeometry x="363" y="83" width="80" height="40" as="geometry" />
        </mxCell>
        <mxCell id="OH9PSzJY4gGJ-cJ-iGZD-36" value="Studio" style="fillColor=none;strokeColor=none;fontSize=17;fontColor=#FFFFFF;align=center;shadow=0;fontStyle=1" parent="1" vertex="1">
          <mxGeometry x="436" y="83" width="80" height="40" as="geometry" />
        </mxCell>
        <mxCell id="OH9PSzJY4gGJ-cJ-iGZD-37" value="Sono" style="fillColor=none;strokeColor=none;fontSize=17;fontColor=#FFFFFF;align=center;shadow=0;fontStyle=1" parent="1" vertex="1">
          <mxGeometry x="507" y="83" width="80" height="40" as="geometry" />
        </mxCell>
        <mxCell id="OH9PSzJY4gGJ-cJ-iGZD-38" value="Eclairage" style="fillColor=none;strokeColor=none;fontSize=17;fontColor=#FFFFFF;align=center;shadow=0;fontStyle=1" parent="1" vertex="1">
          <mxGeometry x="587" y="83" width="80" height="40" as="geometry" />
        </mxCell>
        <mxCell id="OH9PSzJY4gGJ-cJ-iGZD-39" value="DJ" style="fillColor=none;strokeColor=none;fontSize=17;fontColor=#FFFFFF;align=center;shadow=0;fontStyle=1" parent="1" vertex="1">
          <mxGeometry x="663" y="83" width="80" height="40" as="geometry" />
        </mxCell>
        <mxCell id="OH9PSzJY4gGJ-cJ-iGZD-40" value="Cases" style="fillColor=none;strokeColor=none;fontSize=17;fontColor=#FFFFFF;align=center;shadow=0;fontStyle=1" parent="1" vertex="1">
          <mxGeometry x="714" y="83" width="80" height="40" as="geometry" />
        </mxCell>
        <mxCell id="OH9PSzJY4gGJ-cJ-iGZD-41" value="Accessoires" style="fillColor=none;strokeColor=none;fontSize=17;fontColor=#FFFFFF;align=center;shadow=0;fontStyle=1" parent="1" vertex="1">
          <mxGeometry x="797" y="82" width="103" height="40" as="geometry" />
        </mxCell>
        <mxCell id="OH9PSzJY4gGJ-cJ-iGZD-62" value="Catégorie" style="rounded=0;whiteSpace=wrap;html=1;shadow=0;fontSize=17;fontColor=#FFFFFF;strokeColor=#011D7A;fillColor=#535C66;" parent="1" vertex="1">
          <mxGeometry x="510" y="767" width="255" height="133" as="geometry" />
        </mxCell>
        <mxCell id="OH9PSzJY4gGJ-cJ-iGZD-64" value="Catégorie" style="rounded=0;whiteSpace=wrap;html=1;shadow=0;fontSize=17;fontColor=#FFFFFF;strokeColor=#011D7A;fillColor=#535C66;" parent="1" vertex="1">
          <mxGeometry x="-20" y="906" width="255" height="133" as="geometry" />
        </mxCell>
        <mxCell id="OH9PSzJY4gGJ-cJ-iGZD-65" value="Catégorie" style="rounded=0;whiteSpace=wrap;html=1;shadow=0;fontSize=17;fontColor=#FFFFFF;strokeColor=#011D7A;fillColor=#535C66;" parent="1" vertex="1">
          <mxGeometry x="245" y="906" width="255" height="133" as="geometry" />
        </mxCell>
        <mxCell id="OH9PSzJY4gGJ-cJ-iGZD-66" value="Catégorie" style="rounded=0;whiteSpace=wrap;html=1;shadow=0;fontSize=17;fontColor=#FFFFFF;strokeColor=#011D7A;fillColor=#535C66;" parent="1" vertex="1">
          <mxGeometry x="775" y="906" width="255" height="133" as="geometry" />
        </mxCell>
        <mxCell id="OH9PSzJY4gGJ-cJ-iGZD-67" value="Catégorie" style="rounded=0;whiteSpace=wrap;html=1;shadow=0;fontSize=17;fontColor=#FFFFFF;strokeColor=#011D7A;fillColor=#535C66;" parent="1" vertex="1">
          <mxGeometry x="510" y="906" width="255" height="133" as="geometry" />
        </mxCell>
      </root>
    </mxGraphModel>
  </diagram>
</mxfile>
